# Blender v3.2.2 OBJ File: 'clio_tuning.blend'
# www.blender.org
mtllib clio_tuning.mtl
o clio-perfil3d
v -0.934077 0.068658 -0.116325
v -0.934077 0.044632 -0.301321
v 0.864079 0.068658 -0.116325
v 0.864079 0.044632 -0.301321
v -0.934077 0.420733 -0.000001
v 0.864079 0.420733 -0.000001
v -0.934077 0.452476 -0.078701
v 0.864079 0.452476 -0.078701
v -0.934077 0.512940 -0.078701
v 0.864079 0.512940 -0.078701
v -0.934077 0.612706 -0.113510
v 0.864079 0.612706 -0.113510
v -0.934077 0.693286 -0.201379
v 0.864079 0.693286 -0.201379
v -0.934077 0.843452 -0.557839
v 0.864079 0.843452 -0.557839
v -0.621128 0.976649 -1.104478
v 0.551130 0.976649 -1.104478
v -0.621128 1.321618 -1.663494
v 0.551130 1.321617 -1.663494
v -0.621128 1.345839 -1.738613
v 0.551130 1.345839 -1.738613
v -0.621128 1.378008 -1.938869
v 0.551130 1.378008 -1.938869
v -0.621128 1.393789 -2.318120
v 0.551130 1.393789 -2.318120
v -0.621128 1.393789 -2.558854
v 0.551130 1.393789 -2.558854
v -0.621128 1.385436 -2.772111
v 0.551130 1.385436 -2.772111
v -0.621128 1.363578 -3.053066
v 0.551130 1.363578 -3.053066
v -0.621128 1.345320 -3.212246
v 0.551130 1.345320 -3.212246
v -0.621128 1.311619 -3.401038
v 0.551130 1.311619 -3.401038
v -0.621128 1.267025 -3.421593
v 0.551130 1.267024 -3.421593
v -0.621128 1.239796 -3.488338
v 0.551130 1.239796 -3.488338
v -0.621128 1.205995 -3.537221
v 0.551130 1.205995 -3.537221
v -0.621128 1.127655 -3.600294
v 0.551130 1.127654 -3.600294
v -0.621128 1.003718 -3.672679
v 0.551130 1.003718 -3.672679
v -0.621128 0.876471 -3.711326
v 0.551130 0.876471 -3.711326
v -0.934077 0.844548 -3.747048
v 0.864078 0.844548 -3.747048
v -0.934077 0.775068 -3.790291
v 0.864078 0.775068 -3.790291
v -0.934077 0.676057 -3.803476
v 0.864078 0.676057 -3.803476
v -0.934077 0.566204 -3.800656
v 0.864078 0.566204 -3.800656
v -0.934077 0.541440 -3.839140
v 0.864078 0.541440 -3.839140
v -0.934077 0.381653 -3.819366
v 0.864078 0.381653 -3.819366
v -0.934077 0.278373 -3.775182
v 0.864078 0.278373 -3.775182
v -0.934077 0.221881 -3.698492
v 0.864078 0.221881 -3.698492
v -0.934077 0.265109 -3.699382
v 0.864078 0.265109 -3.699382
v -0.934077 0.372870 -3.673008
v 0.864078 0.372870 -3.673008
v -0.934077 0.497395 -3.565114
v 0.864078 0.497395 -3.565114
v -0.934077 0.497395 -3.296579
v 0.864079 0.497395 -3.296579
v -0.934077 0.351318 -3.090382
v 0.864079 0.351318 -3.090382
v -0.934077 0.122774 -2.973228
v 0.864079 0.122774 -2.973228
v -0.934077 0.072413 -1.160304
v 0.864079 0.072413 -1.160304
v -0.934077 0.072413 -1.052619
v 0.864079 0.072413 -1.052619
v -0.934077 0.196696 -1.023902
v 0.864079 0.196696 -1.023902
v -0.934077 0.354441 -0.918610
v 0.864079 0.354441 -0.918610
v -0.934077 0.473945 -0.731955
v 0.864079 0.473945 -0.731956
v -0.934077 0.483505 -0.540515
v 0.864079 0.483505 -0.540515
v -0.934077 0.342491 -0.351467
v 0.864079 0.342491 -0.351467
v -0.934077 0.184746 -0.301214
v 0.864079 0.184746 -0.301214
vn -0.0000 -0.9917 0.1288
vn 0.0000 -0.3137 0.9495
vn 0.0000 0.9274 0.3741
vn 0.0000 0.0000 1.0000
vn 0.0000 0.3294 0.9442
vn 0.0000 0.7370 0.6759
vn 0.0000 0.9216 0.3882
vn 0.0000 0.9716 0.2367
vn 0.0000 0.8510 0.5252
vn 0.0000 0.9517 0.3069
vn 0.0000 0.9873 0.1586
vn 0.0000 0.9991 0.0416
vn 0.0000 1.0000 0.0000
vn 0.0000 0.9992 -0.0391
vn 0.0000 0.9970 -0.0776
vn 0.0000 0.9935 -0.1140
vn 0.0000 0.9844 -0.1757
vn 0.0000 0.4186 -0.9082
vn 0.0000 0.9259 -0.3777
vn 0.0000 0.8225 -0.5687
vn 0.0000 0.6271 -0.7789
vn 0.0000 0.5043 -0.8635
vn 0.0000 0.2906 -0.9568
vn 0.0000 0.7456 -0.6663
vn 0.0000 0.5284 -0.8490
vn 0.0000 0.1320 -0.9913
vn 0.0000 -0.0257 -0.9997
vn 0.0000 0.8409 -0.5411
vn 0.0000 -0.1228 -0.9924
vn 0.0000 -0.3933 -0.9194
vn -0.0000 -0.8051 -0.5931
vn 0.0000 0.0206 0.9998
vn 0.0000 -0.2377 0.9713
vn 0.0000 -0.6548 0.7558
vn -0.0000 -1.0000 0.0000
vn 0.0000 -0.8160 -0.5781
vn 0.0000 -0.4562 -0.8899
vn -0.0000 -0.9996 -0.0278
vn 0.0000 -0.2251 0.9743
vn 0.0000 -0.5552 0.8317
vn 0.0000 -0.8422 0.5392
vn -0.0000 -0.9988 0.0499
vn -0.0000 -0.8016 -0.5979
vn -0.0000 -0.3035 -0.9528
vn -0.0000 0.0008 -1.0000
vn 1.0000 0.0000 0.0000
vn 0.8696 0.2104 -0.4466
vn 0.8939 0.3774 -0.2417
vn 0.8934 0.4492 -0.0006
vn 0.9827 0.1513 0.1072
vn 0.9804 0.1675 0.1034
vn 0.9640 0.2604 0.0533
vn 0.1488 0.7833 0.6036
vn 0.8549 0.4733 -0.2125
vn 0.9441 0.3296 0.0000
vn 0.9484 0.3167 0.0132
vn -1.0000 0.0000 0.0000
vn -0.8696 0.2104 -0.4466
vn -0.8939 0.3774 -0.2417
vn -0.8934 0.4492 -0.0006
vn -0.9827 0.1513 0.1072
vn -0.9804 0.1675 0.1034
vn -0.9640 0.2604 0.0533
vn -0.9484 0.3167 0.0132
vn -0.9441 0.3296 0.0000
vn -0.8549 0.4733 -0.2125
vn -0.1488 0.7833 0.6036
usemtl None
s off
f 1//1 2//1 3//1
f 3//1 2//1 4//1
f 5//2 1//2 6//2
f 6//2 1//2 3//2
f 7//3 5//3 8//3
f 8//3 5//3 6//3
f 9//4 7//4 10//4
f 10//4 7//4 8//4
f 11//5 9//5 12//5
f 12//5 9//5 10//5
f 13//6 11//6 14//6
f 14//6 11//6 12//6
f 15//7 13//7 16//7
f 16//7 13//7 14//7
f 17//8 15//8 18//8
f 18//8 15//8 16//8
f 19//9 17//9 20//9
f 20//9 17//9 18//9
f 21//10 19//10 22//10
f 22//10 19//10 20//10
f 23//11 21//11 24//11
f 24//11 21//11 22//11
f 25//12 23//12 26//12
f 26//12 23//12 24//12
f 27//13 25//13 28//13
f 28//13 25//13 26//13
f 29//14 27//14 30//14
f 30//14 27//14 28//14
f 31//15 29//15 32//15
f 32//15 29//15 30//15
f 33//16 31//16 34//16
f 34//16 31//16 32//16
f 35//17 33//17 36//17
f 36//17 33//17 34//17
f 37//18 35//18 38//18
f 38//18 35//18 36//18
f 39//19 37//19 40//19
f 40//19 37//19 38//19
f 41//20 39//20 42//20
f 42//20 39//20 40//20
f 43//21 41//21 44//21
f 44//21 41//21 42//21
f 45//22 43//22 46//22
f 46//22 43//22 44//22
f 47//23 45//23 48//23
f 48//23 45//23 46//23
f 49//24 47//24 50//24
f 50//24 47//24 48//24
f 51//25 49//25 52//25
f 52//25 49//25 50//25
f 53//26 51//26 54//26
f 54//26 51//26 52//26
f 55//27 53//27 56//27
f 56//27 53//27 54//27
f 57//28 55//28 58//28
f 58//28 55//28 56//28
f 59//29 57//29 60//29
f 60//29 57//29 58//29
f 61//30 59//30 62//30
f 62//30 59//30 60//30
f 63//31 61//31 64//31
f 64//31 61//31 62//31
f 65//32 63//32 66//32
f 66//32 63//32 64//32
f 67//33 65//33 68//33
f 68//33 65//33 66//33
f 69//34 67//34 70//34
f 70//34 67//34 68//34
f 71//35 69//35 72//35
f 72//35 69//35 70//35
f 73//36 71//36 74//36
f 74//36 71//36 72//36
f 75//37 73//37 76//37
f 76//37 73//37 74//37
f 77//38 75//38 78//38
f 78//38 75//38 76//38
f 79//35 77//35 80//35
f 80//35 77//35 78//35
f 81//39 79//39 82//39
f 82//39 79//39 80//39
f 83//40 81//40 84//40
f 84//40 81//40 82//40
f 85//41 83//41 86//41
f 86//41 83//41 84//41
f 87//42 85//42 88//42
f 88//42 85//42 86//42
f 89//43 87//43 90//43
f 90//43 87//43 88//43
f 91//44 89//44 92//44
f 92//44 89//44 90//44
f 2//45 91//45 4//45
f 4//45 91//45 92//45
f 4//46 92//46 3//46
f 3//46 92//46 6//46
f 6//46 92//46 90//46
f 6//46 90//46 8//46
f 8//46 90//46 88//46
f 8//46 88//46 10//46
f 10//46 88//46 12//46
f 12//46 88//46 14//46
f 14//46 88//46 16//46
f 16//46 88//46 86//46
f 16//47 86//47 18//47
f 18//48 86//48 84//48
f 18//49 84//49 74//49
f 74//46 84//46 82//46
f 74//46 82//46 76//46
f 76//46 82//46 78//46
f 78//46 82//46 80//46
f 74//50 72//50 18//50
f 18//51 72//51 20//51
f 20//52 72//52 24//52
f 20//46 24//46 22//46
f 70//46 54//46 72//46
f 72//46 54//46 52//46
f 72//46 52//46 50//46
f 68//46 60//46 70//46
f 70//46 60//46 58//46
f 70//46 58//46 56//46
f 60//46 68//46 62//46
f 62//46 68//46 66//46
f 62//46 66//46 64//46
f 56//46 54//46 70//46
f 50//53 48//53 72//53
f 72//54 48//54 28//54
f 72//55 28//55 26//55
f 48//46 46//46 28//46
f 28//46 46//46 30//46
f 30//46 46//46 44//46
f 30//46 44//46 32//46
f 32//46 44//46 38//46
f 32//46 38//46 34//46
f 34//46 38//46 36//46
f 44//46 42//46 38//46
f 38//46 42//46 40//46
f 26//56 24//56 72//56
f 2//57 1//57 91//57
f 91//57 1//57 5//57
f 91//57 5//57 89//57
f 89//57 5//57 7//57
f 89//57 7//57 87//57
f 87//57 7//57 9//57
f 87//57 9//57 11//57
f 11//57 13//57 87//57
f 87//57 13//57 15//57
f 87//57 15//57 85//57
f 85//58 15//58 17//58
f 85//59 17//59 83//59
f 83//60 17//60 73//60
f 83//57 73//57 81//57
f 81//57 73//57 75//57
f 81//57 75//57 77//57
f 73//61 17//61 71//61
f 71//62 17//62 19//62
f 71//63 19//63 23//63
f 23//57 19//57 21//57
f 23//64 25//64 71//64
f 71//65 25//65 27//65
f 71//66 27//66 47//66
f 47//57 27//57 45//57
f 45//57 27//57 29//57
f 45//57 29//57 43//57
f 43//57 29//57 31//57
f 43//57 31//57 37//57
f 37//57 31//57 33//57
f 37//57 33//57 35//57
f 39//57 41//57 37//57
f 37//57 41//57 43//57
f 47//67 49//67 71//67
f 71//57 49//57 51//57
f 71//57 51//57 53//57
f 71//57 53//57 69//57
f 69//57 53//57 55//57
f 69//57 55//57 57//57
f 57//57 59//57 69//57
f 69//57 59//57 67//57
f 67//57 59//57 61//57
f 67//57 61//57 65//57
f 65//57 61//57 63//57
f 77//57 79//57 81//57
